<svg width="13" height="8" viewBox="0 0 13 8" fill="none" xmlns="http://www.w3.org/2000/svg">
<path d="M12.7427 1.4749L6.98021 7.25458C6.91161 7.32318 6.83729 7.37166 6.75726 7.40002C6.67722 7.42883 6.59147 7.44324 6.5 7.44324C6.40853 7.44324 6.32278 7.42883 6.24274 7.40002C6.16271 7.37166 6.08839 7.32318 6.01979 7.25458L0.240105 1.4749C0.0800351 1.31483 0 1.11474 0 0.874636C0 0.634531 0.085752 0.428726 0.257256 0.257222C0.42876 0.0857186 0.628848 -3.33786e-05 0.85752 -3.33786e-05C1.08619 -3.33786e-05 1.28628 0.0857186 1.45778 0.257222L6.5 5.29944L11.5422 0.257222C11.7023 0.0971522 11.8994 0.0171165 12.1336 0.0171165C12.3682 0.0171165 12.5712 0.102869 12.7427 0.274373C12.9142 0.445877 13 0.645964 13 0.874636C13 1.10331 12.9142 1.3034 12.7427 1.4749Z" fill="#2A2A2A"/>
</svg>
