<svg width="24" height="23" viewBox="0 0 24 23" fill="none" xmlns="http://www.w3.org/2000/svg">
<path d="M23.5 9.37835V2.27636L21.048 4.71665C20.2321 3.61651 19.222 2.66615 18.0577 1.91595C16.2203 0.732046 14.0889 0.106201 11.8938 0.106201C5.61125 0.106201 0.5 5.21745 0.5 11.5001C0.5 17.7827 5.61125 22.894 11.8939 22.894C14.0726 22.894 16.1905 22.2768 18.0188 21.1093C19.7976 19.9733 21.2247 18.3714 22.146 16.4769L20.4559 15.655C18.8483 18.9609 15.5676 21.0145 11.8939 21.0145C6.64756 21.0145 2.37941 16.7464 2.37941 11.5001C2.37941 6.25376 6.64756 1.98561 11.8939 1.98561C15.0166 1.98561 17.9355 3.54553 19.6979 6.06031L16.3639 9.37835H23.5Z" fill="#252525"/>
</svg>
